# AST/ASF file generated using VICON BodyLanguage
# -----------------------------------------------
:version 1.10
:name VICON
:units
  mass 1.0
  length 0.45
  angle deg
:documentation
   .ast/.asf automatically generated from VICON data using
   VICON BodyBuilder and BodyLanguage model FoxedUp or BRILLIANT.MOD
:root
   order TX TY TZ RX RY RZ
   axis XYZ
   position 0 0 0  
   orientation 0 0 0 
:bonedata
  begin
     id 1 
     name lhipjoint
     direction 0.653368 -0.678499 0.335782 
     length 2.51848 
     axis 0 0 0  XYZ
  end
  begin
     id 2 
     name lfemur
     direction 0.34202 -0.939693 0  
     length 6.57749  
     axis 0 0 20  XYZ
    dof rx ry rz
    limits (-160.0 20.0)
           (-70.0 70.0)
           (-60.0 70.0)
  end
  begin
     id 3 
     name ltibia
     direction 0.34202 -0.939693 0   
     length 7.94618   
     axis 0 0 20   XYZ
    dof rx
    limits (-10.0 170.0)
  end
  begin
     id 4 
     name lfoot
     direction 0.0811271 -0.222895 0.971461   
     length 2.31339   
     axis -90 7.62852e-016 20   XYZ
    dof rx rz
    limits (-45.0 90.0)
           (-70.0 20.0)
  end
  begin
     id 5 
     name ltoes
     direction 1.53568e-011 -4.21885e-011 1   
     length 1.15935   
     axis -90 7.62852e-016 20   XYZ
    dof rx
    limits (-90.0 20.0)
  end
  begin
     id 6 
     name rhipjoint
     direction -0.640058 -0.688614 0.340788   
     length 2.48149  
     axis 0 0 0  XYZ 
  end
  begin
     id 7 
     name rfemur
     direction -0.34202 -0.939693 0   
     length 6.57875   
     axis 0 0 -20   XYZ
    dof rx ry rz
    limits (-160.0 20.0)
           (-70.0 70.0)
           (-70.0 60.0)
  end
  begin
     id 8 
     name rtibia
     direction -0.34202 -0.939693 0   
     length 7.977   
     axis 0 0 -20   XYZ
    dof rx
    limits (-10.0 170.0)
 end
 begin
     id 9 
     name rfoot
     direction -0.0979793 -0.269196 0.958089   
     length 2.19857  
     axis -90 -7.62852e-016 -20   XYZ
    dof rx rz
    limits (-45.0 90.0)
           (-20.0 70.0)
  end
  begin
     id 10 
     name rtoes
     direction -1.53556e-011 -4.21868e-011 1   
     length 1.09838   
     axis -90 -7.62852e-016 -20   XYZ
    dof rx
    limits (-90.0 20.0)
  end
  begin
     id 11 
     name lowerback
     direction 0.0149039 0.998517 -0.0523597   
     length 2.10809   
     axis 0 0 0   XYZ
    dof rx ry rz
    limits (-20.0 45.0)
           (-30.0 30.0)
           (-30.0 30.0)
  end
  begin
     id 12 
     name upperback
     direction -0.00882659 0.999418 -0.0329624   
     length 2.1102   
     axis 0 0 0   XYZ
    dof rx ry rz
    limits (-20.0 45.0)
           (-30.0 30.0)
           (-30.0 30.0)
  end
  begin
     id 13 
     name thorax
     direction -0.0165585 0.999826 -0.0085833   
     length 2.11039   
     axis 0 0 0   XYZ
    dof rx ry rz
    limits (-20.0 45.0)
           (-30.0 30.0)
           (-30.0 30.0)
  end
  begin
     id 14 
     name lowerneck
     direction -0.0130877 0.999911 0.00260353   
     length 1.73253   
     axis 0 0 0   XYZ
    dof rx ry rz
    limits (-20.0 45.0)
           (-30.0 30.0)
           (-30.0 30.0)
  end
  begin
     id 15 
     name upperneck
     direction -0.0348454 0.928205 -0.370435   
     length 1.66692   
     axis 0 0 0   XYZ
    dof rx ry rz
    limits (-20.0 45.0)
           (-30.0 30.0)
           (-30.0 30.0)
  end
  begin
     id 16
     name head
     direction -0.00807754 0.992494 -0.122026  
     length 1.72765  
     axis 0 0 0   XYZ
    dof rx ry rz
    limits (-20.0 45.0)
           (-30.0 30.0)
           (-30.0 30.0)
  end
  begin
     id 17 
     name lclavicle
     direction 0.987582 0.144023 0.0627671  
     length 3.49235  
     axis 0 0 0   XYZ
    dof ry rz
    limits (-20.0 10.0)
           (0.0 20.0)
  end
  begin
     id 18 
     name lhumerus
     direction 1 -4.48958e-011 -1.45183e-018   
     length 5.41917   
     axis 180 -30 -90   XYZ
    dof rx ry rz
    limits (-60.0 90.0)
           (-90.0 90.0)
           (-90.0 90.0)
  end
  begin
     id 19
     name lradius
     direction 1 -4.48999e-011 5.75106e-027   
     length 2.44373   
     axis 180 -30 -90   XYZ
    dof rx
    limits (-10.0 170.0)
  end
  begin
     id 20
     name lwrist
     direction 1 -4.48987e-011 1.53461e-026   
     length 1.22186   
     axis -1.09697e-014 90 90   XYZ
    dof ry
    limits (-180.0 0.0)
 end
  begin
     id 21 
     name lhand
     direction 1 -4.48881e-011 3.06923e-026   
     length 0.727502   
     axis -1.95843e-014 90 90   XYZ
    dof rx rz
    limits (-90.0 90.0)
           (-45.0 45.0)
  end
  begin
     id 22 
     name lfingers
     direction 1 -4.48907e-011 6.13845e-026   
     length 0.586531   
     axis -3.91686e-014 90 90   XYZ
    dof rx
    limits (0.0 90.0)
  end
  begin
     id 23
     name lthumb
     direction 0.707107 -6.3487e-011 0.707107   
     length 0.842145   
     axis -90 45 2.85299e-015   XYZ
    dof rx rz
    limits (-45.0 45.0)
           (-45.0 45.0)
  end
  begin
     id 24 
     name rclavicle
     direction -0.980998 0.169556 0.0943023   
     length 3.29272  
     axis 0 0 0   XYZ 
    dof ry rz
    limits (-10.0 20.0)
           (-20.0 0.0)
  end
  begin
     id 25 
     name rhumerus
     direction -1 -1.83355e-005 2.45537e-005  
     length 5.58976   
     axis 180 30 90   XYZ
    dof rx ry rz
    limits (-90.0 60.0)
           (-90.0 90.0)
           (-90.0 90.0)
  end
  begin
     id 26 
     name rradius
     direction -1 -4.48967e-011 5.97228e-027   
     length 2.4806   
     axis 180 30 90   XYZ
    dof rx
    limits (-10.0 170.0)
  end
  begin
     id 27 
     name rwrist
     direction -1 -4.48963e-011 1.53461e-026   
     length 1.2403   
     axis -1.09697e-014 -90 -90   XYZ
    dof ry
    limits (-180.0 0.0)
  end
  begin
     id 28
     name rhand
     direction -1 -4.48881e-011 3.06923e-026   
     length 0.816009   
     axis -1.95843e-014 -90 -90   XYZ
    dof rx rz
    limits (-90.0 90.0)
           (-45.0 45.0)
  end
  begin
     id 29
     name rfingers
     direction -1 -4.49018e-011 6.13845e-026   
     length 0.657887   
     axis -3.91686e-014 -90 -90   XYZ
    dof rx
    limits (0.0 90.0)
  end
  begin
     id 30
     name rthumb
     direction -0.707107 -6.34872e-011 0.707107   
     length 0.944599   
     axis -90 -45 -2.85299e-015   XYZ
    dof rx rz
    limits (-45.0 45.0)
           (-45.0 45.0)
  end
:hierarchy
  begin
    root lhipjoint rhipjoint lowerback
    lhipjoint lfemur
    lfemur ltibia
    ltibia lfoot
    lfoot ltoes
    rhipjoint rfemur
    rfemur rtibia
    rtibia rfoot
    rfoot rtoes
    lowerback upperback
    upperback thorax
    thorax lowerneck lclavicle rclavicle
    lowerneck upperneck
    upperneck head
    lclavicle lhumerus
    lhumerus lradius
    lradius lwrist
    lwrist lhand lthumb
    lhand lfingers
    rclavicle rhumerus
    rhumerus rradius
    rradius rwrist
    rwrist rhand rthumb
    rhand rfingers
  end

#!OML:ASF F:\VICON\USERDATA\INSTALL\rory3\rory3.ASF
:FULLY-SPECIFIED
:DEGREES
66
root 0.619804 16.5312 36.4902 -153.806 -1.16007 -181.804
lowerback -22.4284 0.186518 -5.53958
upperback -9.45483 -0.649598 -0.163301
thorax 2.13501 -1.06908 2.79143
lowerneck -10.3632 1.02889 -3.89549
upperneck 34.1559 -1.08876 -0.203063
head 13.1736 -2.30718 0.149988
rclavicle 1.90398e-015 3.03147e-015
rhumerus -53.2028 18.0839 -95.6867
rradius 20.3033
rwrist -10.292
rhand 21.8327 5.09888
rfingers 7.12502
rthumb 46.2383 -17.8958
lclavicle 1.90398e-015 3.03147e-015
lhumerus -51.8948 -0.7782 77.6854
lradius 22.4292
lwrist -6.19971
lhand 24.6937 21.1891
lfingers 7.12502
lthumb 48.8798 42.9808
rfemur -32.1782 -19.7376 30.3434
rtibia 61.6291
rfoot 18.5424 -31.2946
rtoes 35.2807
lfemur -46.4197 -1.52901 -33.5242
ltibia 44.3281
lfoot -37.2931 21.2755
ltoes 9.3117
67
root 0.629099 16.5314 36.4754 -153.953 -1.65103 -181.832
lowerback -22.417 0.00209882 -5.52627
upperback -9.31867 -0.845619 -0.117303
thorax 2.29767 -1.15203 2.78486
lowerneck -10.5574 1.0052 -3.85511
upperneck 34.2741 -1.12639 -0.207491
head 13.268 -2.32049 0.132044
rclavicle 8.88319e-016 1.78906e-015
rhumerus -52.856 18.0184 -95.4996
rradius 20.3324
rwrist -10.0395
rhand 22.2453 4.84936
rfingers 7.12502
rthumb 46.6207 -17.9822
lclavicle 8.88319e-016 1.78906e-015
lhumerus -51.6038 -0.976397 77.8332
lradius 22.2872
lwrist -6.15573
lhand 25.2368 21.5999
lfingers 7.12502
lthumb 49.3785 43.1429
rfemur -31.8903 -20.0168 30.5157
rtibia 61.5744
rfoot 20.7113 -32.5326
rtoes 35.7205
lfemur -46.1629 -1.7076 -33.3755
ltibia 44.3305
lfoot -37.161 21.1248
ltoes 9.31936
68
root 0.636298 16.5316 36.4766 -153.774 -1.49383 -181.744
lowerback -22.4741 0.0663368 -5.5001
upperback -9.23208 -0.741557 -0.115845
thorax 2.41268 -1.09765 2.79426
lowerneck -11.1547 0.908313 -3.74734
upperneck 34.4749 -1.20324 -0.305345
head 13.4883 -2.34103 0.0567707
rclavicle -5.57529e-015 1.77912e-014
rhumerus -52.2907 18.1645 -95.4428
rradius 20.3094
rwrist -10.149
rhand 22.5948 4.74973
rfingers 7.12502
rthumb 46.9442 -17.941
lclavicle -5.57529e-015 1.77912e-014
lhumerus -51.114 -1.09137 77.9425
lradius 22.2318
lwrist -6.25856
lhand 25.7629 21.7722
lfingers 7.12502
lthumb 49.8607 43.0678
rfemur -32.1502 -19.7855 30.6436
rtibia 61.5948
rfoot 17.3684 -31.8696
rtoes 37.2092
lfemur -46.4386 -1.63316 -33.3142
ltibia 44.3869
lfoot -37.1252 21.2617
ltoes 9.27674
69
root 0.644123 16.5309 36.4755 -153.767 -1.50273 -181.774
lowerback -22.4269 0.0154776 -5.58812
upperback -9.07278 -0.741906 -0.0722619
thorax 2.56402 -1.08136 2.8896
lowerneck -11.6957 0.844682 -3.62898
upperneck 34.6411 -1.206 -0.495676
head 13.6808 -2.34028 -0.0462883
rclavicle 6.02566e-016 1.73937e-015
rhumerus -51.8445 18.6249 -95.5877
rradius 20.3484
rwrist -10.5809
rhand 22.761 4.6797
rfingers 7.12502
rthumb 47.098 -17.9432
lclavicle 6.02566e-016 1.73937e-015
lhumerus -50.6741 -1.12593 78.1173
lradius 22.342
lwrist -6.37271
lhand 26.2884 21.82
lfingers 7.12502
lthumb 50.3414 42.8617
rfemur -32.2041 -19.7867 30.6824
rtibia 61.6415
rfoot 18.0777 -32.0175
rtoes 36.5477
lfemur -46.49 -1.63877 -33.3137
ltibia 44.4481
lfoot -37.0932 21.2333
ltoes 9.39089
70
root 0.651771 16.5301 36.4708 -153.748 -1.51674 -181.743
lowerback -22.3671 0.0114252 -5.60615
upperback -9.08551 -0.747885 -0.0297293
thorax 2.52107 -1.08106 2.94523
lowerneck -11.8008 0.868638 -3.53239
upperneck 34.7363 -1.17012 -0.58207
head 13.7449 -2.32776 -0.0960808
rclavicle -6.70588e-015 9.0944e-015
rhumerus -51.8137 18.9453 -95.7874
rradius 20.4661
rwrist -10.9171
rhand 23.0631 4.17122
rfingers 7.12502
rthumb 47.3772 -18.327
lclavicle -6.70588e-015 9.0944e-015
lhumerus -50.5247 -1.08948 78.1681
lradius 22.2607
lwrist -6.70555
lhand 26.6471 21.6884
lfingers 7.12502
lthumb 50.6689 42.5527
rfemur -32.2514 -19.8267 30.7668
rtibia 61.7509
rfoot 18.0445 -32.094
rtoes 36.8604
lfemur -46.5653 -1.63532 -33.258
ltibia 44.5299
lfoot -37.0408 21.3103
ltoes 9.31847
71
root 0.658333 16.528 36.466 -153.683 -1.44381 -181.883
lowerback -22.4304 0.0809395 -5.73851
upperback -9.21156 -0.66583 -0.168376
thorax 2.40232 -1.05295 2.89193
lowerneck -11.2692 0.878107 -3.36878
upperneck 34.5869 -1.283 -0.496909
head 13.5614 -2.35355 -0.100746
rclavicle -4.8081e-015 2.23633e-014
rhumerus -51.8948 18.6009 -95.7537
rradius 20.4734
rwrist -10.6692
rhand 23.3336 3.84675
rfingers 7.12502
rthumb 47.627 -18.5382
lclavicle -4.8081e-015 2.23633e-014
lhumerus -50.6629 -1.43912 78.2294
lradius 22.2387
lwrist -6.79772
lhand 26.7352 21.6666
lfingers 7.12502
lthumb 50.7493 42.4869
rfemur -32.3843 -19.8827 30.6394
rtibia 61.916
rfoot 17.8869 -32.0957
rtoes 37.137
lfemur -46.6575 -1.49027 -33.4785
ltibia 44.5862
lfoot -36.7607 21.5431
ltoes 8.5517
